<?xml version="1.0" standalone="no"?>
<!DOCTYPE svg PUBLIC "-//W3C//DTD SVG 20010904//EN"
 "http://www.w3.org/TR/2001/REC-SVG-20010904/DTD/svg10.dtd">
<svg version="1.0" xmlns="http://www.w3.org/2000/svg"
 width="512.000000pt" height="512.000000pt" viewBox="0 0 512.000000 512.000000"
 preserveAspectRatio="xMidYMid meet">

<g transform="translate(0.000000,512.000000) scale(0.100000,-0.100000)"
fill="#000000" stroke="none">
<path d="M1140 5113 c-190 -21 -408 -101 -565 -206 -83 -56 -108 -77 -203
-170 -172 -169 -293 -394 -348 -647 -18 -81 -19 -156 -19 -1530 0 -1374 1
-1449 19 -1530 113 -515 491 -893 1006 -1006 81 -18 156 -19 1530 -19 1374 0
1449 1 1530 19 515 113 893 491 1006 1006 18 81 19 156 19 1530 0 1374 -1
1449 -19 1530 -100 458 -422 823 -851 963 -198 65 -78 61 -1645 62 -784 1
-1441 0 -1460 -2z m2870 -437 c94 -20 215 -69 289 -118 194 -127 339 -342 380
-563 8 -40 11 -490 11 -1439 0 -1137 -3 -1393 -14 -1446 -33 -156 -117 -312
-229 -428 -113 -116 -300 -215 -459 -242 -44 -7 -496 -10 -1468 -8 l-1405 3
-95 33 c-132 46 -239 112 -335 207 -128 126 -205 265 -241 435 -20 97 -20
2803 0 2900 71 333 328 592 661 665 91 20 2811 21 2905 1z"/>
<path d="M1422 3829 c-49 -14 -118 -88 -132 -141 -26 -95 14 -196 98 -245 l47
-28 1125 0 1125 0 47 28 c84 49 124 149 97 244 -16 59 -81 127 -135 142 -51
14 -2224 14 -2272 0z"/>
<path d="M1405 2753 c-164 -86 -166 -300 -3 -384 36 -18 74 -19 1155 -19 1067
0 1120 1 1158 19 164 76 166 298 3 382 -36 18 -74 19 -1160 19 -1003 -1 -1126
-2 -1153 -17z"/>
<path d="M1442 1700 c-84 -20 -162 -116 -162 -199 0 -94 64 -184 146 -209 60
-18 2208 -18 2268 0 57 17 119 82 135 141 27 95 -13 195 -97 244 l-47 28
-1105 2 c-608 0 -1120 -2 -1138 -7z"/>
</g>
</svg>
